# xmcd
#
# Track frame offsets: 
#        150
#        4905
#        24132
#        44757
#        65840
#        84102
#        104655
#        108937
#        126750
#        148235
#        166172
#        185370
#        202730
#        219637
#        237665
#        262087
#        280140
#
# Disc length: 3991 seconds
#
# Revision: 7
# Processed by: cddbd v1.5.2PL0 Copyright (c) Steve Scherf et al.
# Submitted via: ExactAudioCopy v1.0b3
#
DISCID=f80f9511
DTITLE=Mario Winans - Strory Of My Heart
DYEAR=1997
DGENRE=Soul
TTITLE0=Prayerlude
TTITLE1=Every Now And Then
TTITLE2=Stay With Me
TTITLE3=Arouse Me
TTITLE4=Don't Know
TTITLE5=Love Man
TTITLE6=I Wanna Be Your Man (Interlude)
TTITLE7=You Never Know
TTITLE8=Come Back Home
TTITLE9=My Sweetheart
TTITLE10=Don't Know Remix
TTITLE11=It's All Good
TTITLE12=Don't Take Your Love Away
TTITLE13=One Last Chance
TTITLE14=Love Is In The Air
TTITLE15=Loving Arms
TTITLE16=Take My Breath Away
EXTD=YEAR: 1997
EXTT0=
EXTT1=
EXTT2=
EXTT3=
EXTT4=
EXTT5=
EXTT6=Interlude
EXTT7=
EXTT8=
EXTT9=
EXTT10=Remix
EXTT11=
EXTT12=
EXTT13=
EXTT14=
EXTT15=
EXTT16=CD Bonus
PLAYORDER=
